<svg width="46.000000" height="44.000000" viewBox="0 0 46 44" fill="none"
  xmlns="http://www.w3.org/2000/svg"
  xmlns:xlink="http://www.w3.org/1999/xlink">
  <defs/>
  <path id="Vector" d="M39.72 27.23L39.72 33.52L46 33.52L46 37.71L39.72 37.71L39.72 44L35.54 44L35.54 37.71L29.27 37.71L29.27 33.52L35.54 33.52L35.54 27.23L39.72 27.23ZM23 23.04C20.7 23.04 18.81 24.93 18.81 27.23C18.81 29.54 20.7 31.42 23 31.42C25.3 31.42 27.18 29.54 27.18 27.23C27.18 24.93 25.3 23.04 23 23.04ZM25.82 39.8L9.4 39.8C7.48 39.8 5.87 38.51 5.39 36.75L0.08 17.32C0 17.13 0 16.95 0 16.76C0 15.6 0.94 14.66 2.09 14.66L12.1 14.66L21.26 0.94C21.66 0.33 22.33 0 23 0C23.66 0 24.33 0.33 24.73 0.92L33.89 14.66L43.9 14.66C45.05 14.66 46 15.6 46 16.76L45.93 17.32L43.9 24.74C42.71 24.09 41.37 23.55 39.97 23.27L41.19 18.85L4.83 18.85L9.4 35.61L25.09 35.61C25.09 37.08 25.36 38.48 25.82 39.8ZM17.14 14.66L28.85 14.66L23 5.86L17.14 14.66Z" fill="#495E57" fill-opacity="1.000000" fill-rule="nonzero"/>
</svg>
